HIERARCHY
ROOT Hips
{
	OFFSET 0.00 0.00 0.00
	CHANNELS 6 Xposition Yposition Zposition Zrotation Xrotation Yrotation
	JOINT LeftUpLeg
	{
		OFFSET 8.64259 1.95398 -2.38835
		CHANNELS 6 Xposition Yposition Zposition Zrotation Xrotation Yrotation
		JOINT LeftLeg
		{
			OFFSET 43.7702 0 0
			CHANNELS 6 Xposition Yposition Zposition Zrotation Xrotation Yrotation
			JOINT LeftFoot
			{
				OFFSET 40.6238 0 0
				CHANNELS 6 Xposition Yposition Zposition Zrotation Xrotation Yrotation
				End Site4
				{
					OFFSET 12.7242 0 0
				}
			}
		}
	}
	JOINT RightUpLeg
	{
		OFFSET -8.2249 1.95398 -2.59336
		CHANNELS 6 Xposition Yposition Zposition Zrotation Xrotation Yrotation
		JOINT RightLeg
		{
			OFFSET 43.5653 0 0
			CHANNELS 6 Xposition Yposition Zposition Zrotation Xrotation Yrotation
			JOINT RightFoot
			{
				OFFSET 40.6238 0 0
				CHANNELS 6 Xposition Yposition Zposition Zrotation Xrotation Yrotation
				End Site8
				{
					OFFSET 12.7242 0 0
				}
			}
		}
	}
	JOINT Spine
	{
		OFFSET 0.165834 0.87714 6.61349
		CHANNELS 6 Xposition Yposition Zposition Zrotation Xrotation Yrotation
		JOINT Spine1
		{
			OFFSET 7.38963 1.71661e-005 0
			CHANNELS 6 Xposition Yposition Zposition Zrotation Xrotation Yrotation
			JOINT Spine2
			{
				OFFSET 11.9445 1.14441e-005 0
				CHANNELS 6 Xposition Yposition Zposition Zrotation Xrotation Yrotation
				JOINT Spine3
				{
					OFFSET 14.7254 4.19617e-005 0
					CHANNELS 6 Xposition Yposition Zposition Zrotation Xrotation Yrotation
					JOINT Spine4
					{
						OFFSET 10.9679 0 0
						CHANNELS 6 Xposition Yposition Zposition Zrotation Xrotation Yrotation
						JOINT RightShoulder
						{
							OFFSET 2.46616 -1.6653 3.69651
							CHANNELS 6 Xposition Yposition Zposition Zrotation Xrotation Yrotation
							JOINT RightArm
							{
								OFFSET 13.0012 0 0
								CHANNELS 6 Xposition Yposition Zposition Zrotation Xrotation Yrotation
								JOINT RightForeArm
								{
									OFFSET 28.7848 1.52588e-005 0
									CHANNELS 6 Xposition Yposition Zposition Zrotation Xrotation Yrotation
									JOINT RightHand
									{
										OFFSET 26.5688 1.52588e-005 0
										CHANNELS 6 Xposition Yposition Zposition Zrotation Xrotation Yrotation
										JOINT RightHandMiddle1
										{
											OFFSET 8.03675 -0.886582 0.727868
											CHANNELS 6 Xposition Yposition Zposition Zrotation Xrotation Yrotation
											JOINT RightHandMiddle2
											{
												OFFSET 2.78833 0 0
												CHANNELS 6 Xposition Yposition Zposition Zrotation Xrotation Yrotation
												End Site20
												{
													OFFSET 2.41155 0 0
												}
											}
										}
										JOINT RightHandRing1
										{
											OFFSET 7.97966 -0.886765 -1.00486
											CHANNELS 6 Xposition Yposition Zposition Zrotation Xrotation Yrotation
											JOINT RightHandRing2
											{
												OFFSET 2.86368 0 0
												CHANNELS 6 Xposition Yposition Zposition Zrotation Xrotation Yrotation
												End Site23
												{
													OFFSET 2.11079 0 0
												}
											}
										}
										JOINT RightHandPinky1
										{
											OFFSET 8.03707 -0.887528 -2.60696
											CHANNELS 6 Xposition Yposition Zposition Zrotation Xrotation Yrotation
											JOINT RightHandPinky2
											{
												OFFSET 1.84628 0 0
												CHANNELS 6 Xposition Yposition Zposition Zrotation Xrotation Yrotation
												End Site26
												{
													OFFSET 1.88434 0 0
												}
											}
										}
										JOINT RightHandIndex1
										{
											OFFSET 7.92262 -0.885498 2.31175
											CHANNELS 6 Xposition Yposition Zposition Zrotation Xrotation Yrotation
											JOINT RightHandIndex2
											{
												OFFSET 2.63761 0 0
												CHANNELS 6 Xposition Yposition Zposition Zrotation Xrotation Yrotation
												End Site29
												{
													OFFSET 2.16656 0 0
												}
											}
										}
										JOINT RightHandThumb1
										{
											OFFSET 3.4769 0.0597992 2.88789
											CHANNELS 6 Xposition Yposition Zposition Zrotation Xrotation Yrotation
											JOINT RightHandThumb2
											{
												OFFSET 2.77686 9.72748e-005 -1.52588e-005
												CHANNELS 6 Xposition Yposition Zposition Zrotation Xrotation Yrotation
												End Site32
												{
													OFFSET 2.42058 -9.15528e-005 0
												}
											}
										}
									}
								}
							}
						}
						JOINT LeftShoulder
						{
							OFFSET 2.38034 -1.29275 -3.75231
							CHANNELS 6 Xposition Yposition Zposition Zrotation Xrotation Yrotation
							JOINT LeftArm
							{
								OFFSET 16.3182 6.10352e-005 0
								CHANNELS 6 Xposition Yposition Zposition Zrotation Xrotation Yrotation
								JOINT LeftForeArm
								{
									OFFSET 27.0901 0 0
									CHANNELS 6 Xposition Yposition Zposition Zrotation Xrotation Yrotation
									JOINT LeftHand
									{
										OFFSET 24.5451 1.52588e-005 0
										CHANNELS 6 Xposition Yposition Zposition Zrotation Xrotation Yrotation
										JOINT LeftHandMiddle1
										{
											OFFSET 9.21802 0.665817 0.545532
											CHANNELS 6 Xposition Yposition Zposition Zrotation Xrotation Yrotation
											JOINT LeftHandMiddle2
											{
												OFFSET 2.66255 0 0
												CHANNELS 6 Xposition Yposition Zposition Zrotation Xrotation Yrotation
												End Site39
												{
													OFFSET 2.2804 0 0
												}
											}
										}
										JOINT LeftHandRing1
										{
											OFFSET 9.24775 0.665192 -1.1267
											CHANNELS 6 Xposition Yposition Zposition Zrotation Xrotation Yrotation
											JOINT LeftHandRing2
											{
												OFFSET 2.47041 0 -1.52588e-005
												CHANNELS 6 Xposition Yposition Zposition Zrotation Xrotation Yrotation
												End Site42
												{
													OFFSET 2.2054 0 0
												}
											}
										}
										JOINT LeftHandPinky1
										{
											OFFSET 9.35384 0.66301 -2.72332
											CHANNELS 6 Xposition Yposition Zposition Zrotation Xrotation Yrotation
											JOINT LeftHandPinky2
											{
												OFFSET 1.63407 0 0
												CHANNELS 6 Xposition Yposition Zposition Zrotation Xrotation Yrotation
												End Site45
												{
													OFFSET 1.71176 0 0
												}
											}
										}
										JOINT LeftHandIndex1
										{
											OFFSET 8.73161 0.675903 2.06801
											CHANNELS 6 Xposition Yposition Zposition Zrotation Xrotation Yrotation
											JOINT LeftHandIndex2
											{
												OFFSET 2.66689 0 0
												CHANNELS 6 Xposition Yposition Zposition Zrotation Xrotation Yrotation
												End Site48
												{
													OFFSET 2.12946 0 1.52588e-005
												}
											}
										}
										JOINT LeftHandThumb1
										{
											OFFSET 4.96735 -0.62265 3.39586
											CHANNELS 6 Xposition Yposition Zposition Zrotation Xrotation Yrotation
											JOINT LeftHandThumb2
											{
												OFFSET 2.15386 1.52588e-005 0
												CHANNELS 6 Xposition Yposition Zposition Zrotation Xrotation Yrotation
												End Site51
												{
													OFFSET 2.19511 -3.43323e-005 1.52588e-005
												}
											}
										}
									}
								}
							}
						}
						JOINT Neck
						{
							OFFSET 5.0226 -0.0266342 0
							CHANNELS 6 Xposition Yposition Zposition Zrotation Xrotation Yrotation
							JOINT Head
							{
								OFFSET 6.69364 2.86102e-005 0
								CHANNELS 6 Xposition Yposition Zposition Zrotation Xrotation Yrotation
								End Site54
								{
									OFFSET 0 0 0
								}
							}
						}
					}
				}
			}
		}
	}
}
MOTION
Frames: 4
Frame Time: 0.0416667
-22.7222	95.2596	-28.3785	-58.8139	-81.4103	-56.989	8.64259 1.95398 -2.38835 173.716	13.0425	93.5964	43.7702 0 0 -19.7189	-1.44383	-4.16411	40.6238 0 0 67.0661	1.30085	0.604774	-8.2249 1.95398 -2.59336 -179.365	7.43379	90.5464	43.5653 0 0 -9.75233	1.51163	1.6345	40.6238 0 0 56.3919	-0.960577	-0.671781	0.165834 0.87714 6.61349 1.46855	-3.31392	-96.5942	7.38963 1.71661e-005 0 14.1935	4.3381e-006	4.07707e-013	11.9445 1.14441e-005 0 2.5225	-3.71489e-012	-1.98785e-016	14.7254 4.19617e-005 0 -20.0126	9.59253e-008	8.13675e-013	10.9679 0 0 7.95139e-016	6.11462e-013	3.47873e-016	2.46616 -1.6653 3.69651 100.944	-18.6919	-85.9273	13.0012 0 0 29.9222	-74.6595	-15.5358	28.7848 1.52588e-005 0 -8.75425	4.31246	-23.8148	26.5688 1.52588e-005 0 4.54168	-0.412248	-2.7322	8.03675 -0.886582 0.727868 -89.4043	88.9709	89.0941	2.78833 0 0 -0.0604881	-1.66753e-009	1.56334e-010	7.97966 -0.886765 -1.00486 -89.3948	88.9811	89.0846	2.86368 0 0 -1.15742	-3.18055e-015	-5.2107e-011	8.03707 -0.887528 -2.60696 -88.8572	89.3579	88.547	1.84628 0 0 -1.14578	-3.18055e-015	3.18055e-015	7.92262 -0.885498 2.31175 -89.423	88.9487	89.1127	2.63761 0 0 0.409286	3.18055e-015	1.04224e-010	3.4769 0.0597992 2.88789 104.364	40.5023	-88.8246	2.77686 9.72748e-005 -1.52588e-005 -7.66903	0.186177	-1.35044	2.38034 -1.29275 -3.75231 -79.1782	-21.5713	93.2198	16.3182 6.10352e-005 0 -21.7634	76.1807	-35.6493	27.0901 0 0 9.34072	-5.21547	-19.7709	24.5451 1.52588e-005 0 -3.80571	-1.57017	0.471901	9.21802 0.665817 0.545532 -91.1873	-87.8289	-89.9988	2.66255 0 0 3.40888	1.59028e-015	-2.08441e-010	9.24775 0.665192 -1.1267 -91.1871	-89.4015	-89.9985	2.47041 0 -1.52588e-005 2.85637	6.67011e-009	2.60542e-010	9.35384 0.66301 -2.72332 88.8084	-89.7171	89.9969	1.63407 0 0 2.54481	0	1.43303e-010	8.73161 0.675903 2.06801 -91.1883	-86.1973	-89.9998	2.66689 0 0 6.13104	-6.67011e-009	3.12658e-010	4.96735 -0.62265 3.39586 -101.949	-40.7242	-90.0694	2.15386 1.52588e-005 0 10.0172	9.93923e-016	8.53774e-007	5.0226 -0.0266342 0 1.75372	8.88591e-006	4.06415e-013	6.69364 2.86102e-005 0 -18.911	-1.15366	3.69803
-22.8946	95.219	-28.5912	-59.3343	-81.5125	-57.531	8.64259 1.95398 -2.38835 173.805	13.0408	93.7238	43.7702 0 0 -19.8356	-1.47452	-4.24726	40.6238 0 0 66.9743	1.30085	0.604774	-8.2249 1.95398 -2.59336 -178.962	7.72196	90.6123	43.5653 0 0 -10.216	1.53897	1.74293	40.6238 0 0 56.5353	-0.942153	-0.671778	0.165834 0.87714 6.61349 1.47223	-2.65445	-96.2511	7.38963 1.71661e-005 0 14.1935	4.3381e-006	4.08502e-013	11.9445 1.14441e-005 0 2.5225	-3.71489e-012	-3.9757e-016	14.7254 4.19617e-005 0 -20.0126	9.59253e-008	8.15514e-013	10.9679 0 0 -2.11316e-030	6.09076e-013	1.98785e-016	2.46616 -1.6653 3.69651 100.944	-18.6919	-85.9273	13.0012 0 0 29.3078	-74.4945	-16.4473	28.7848 1.52588e-005 0 -8.74335	4.25025	-23.8936	26.5688 1.52588e-005 0 4.43755	-0.417691	-2.72286	8.03675 -0.886582 0.727868 -89.4043	88.9709	89.0941	2.78833 0 0 -0.0604881	-1.66753e-009	1.56331e-010	7.97966 -0.886765 -1.00486 -89.3948	88.9811	89.0846	2.86368 0 0 -1.15742	6.36111e-015	-5.21166e-011	8.03707 -0.887528 -2.60696 -88.8572	89.3579	88.547	1.84628 0 0 -1.14578	-3.18055e-015	-6.36111e-015	7.92262 -0.885498 2.31175 -89.423	88.9487	89.1127	2.63761 0 0 0.409286	3.18055e-015	1.0422e-010	3.4769 0.0597992 2.88789 104.364	40.5023	-88.8246	2.77686 9.72748e-005 -1.52588e-005 -7.66903	0.186177	-1.35044	2.38034 -1.29275 -3.75231 -79.1782	-21.5713	93.2198	16.3182 6.10352e-005 0 -17.563	76.59	-39.2893	27.0901 0 0 9.89059	-5.64966	-20.2195	24.5451 1.52588e-005 0 -3.49089	-1.57575	0.705679	9.21802 0.665817 0.545532 -91.1873	-87.8289	-89.9988	2.66255 0 0 3.40888	-1.59028e-015	-2.08444e-010	9.24775 0.665192 -1.1267 -91.1871	-89.4015	-89.9985	2.47041 0 -1.52588e-005 2.85637	6.67011e-009	2.60548e-010	9.35384 0.66301 -2.72332 88.8084	-89.7171	89.9969	1.63407 0 0 2.54481	7.95139e-016	1.43309e-010	8.73161 0.675903 2.06801 -91.1883	-86.1973	-89.9998	2.66689 0 0 6.13104	-6.67011e-009	3.12664e-010	4.96735 -0.62265 3.39586 -101.949	-40.7242	-90.0694	2.15386 1.52588e-005 0 10.0172	1.98785e-015	8.53774e-007	5.0226 -0.0266342 0 1.75372	8.88591e-006	4.06713e-013	6.69364 2.86102e-005 0 -18.4627	-1.34832	3.32923
-23.1351	95.1911	-28.8735	-60.1387	-81.6861	-58.3844	8.64259 1.95398 -2.38835 174.167	13.2141	93.9013	43.7702 0 0 -20.2609	-1.48017	-4.30766	40.6238 0 0 66.9754	1.30085	0.604774	-8.2249 1.95398 -2.59336 -177.813	7.88073	90.6364	43.5653 0 0 -10.3834	1.61914	1.88344	40.6238 0 0 56.5166	-0.912371	-0.671772	0.165834 0.87714 6.61349 1.49661	-1.83249	-95.9392	7.38963 1.71661e-005 0 14.1935	4.3381e-006	4.05918e-013	11.9445 1.14441e-005 0 2.5225	-3.71648e-012	-7.95139e-016	14.7254 4.19617e-005 0 -20.0126	9.59253e-008	8.14222e-013	10.9679 0 0 -0	6.10666e-013	-0	2.46616 -1.6653 3.69651 100.944	-18.6919	-85.9273	13.0012 0 0 28.4014	-74.4842	-17.5598	28.7848 1.52588e-005 0 -8.83494	4.33725	-23.9822	26.5688 1.52588e-005 0 4.52708	-0.409579	-2.72454	8.03675 -0.886582 0.727868 -89.4043	88.9709	89.0941	2.78833 0 0 -0.0604881	-1.66753e-009	1.56327e-010	7.97966 -0.886765 -1.00486 -89.3948	88.9811	89.0846	2.86368 0 0 -1.15742	-3.18055e-015	-5.21166e-011	8.03707 -0.887528 -2.60696 -88.8572	89.3579	88.547	1.84628 0 0 -1.14578	0	6.36111e-015	7.92262 -0.885498 2.31175 -89.423	88.9487	89.1127	2.63761 0 0 0.409286	-3.18055e-015	1.04208e-010	3.4769 0.0597992 2.88789 104.364	40.5023	-88.8246	2.77686 9.72748e-005 -1.52588e-005 -7.66903	0.186177	-1.35044	2.38034 -1.29275 -3.75231 -79.1782	-21.5713	93.2198	16.3182 6.10352e-005 0 -12.116	76.8497	-43.8553	27.0901 0 0 10.6328	-5.72017	-21.4893	24.5451 1.52588e-005 0 -3.40773	-1.61391	0.957951	9.21802 0.665817 0.545532 -91.1873	-87.8289	-89.9988	2.66255 0 0 3.40888	-1.59028e-015	-2.08447e-010	9.24775 0.665192 -1.1267 -91.1871	-89.4015	-89.9985	2.47041 0 -1.52588e-005 2.85637	6.67011e-009	2.60551e-010	9.35384 0.66301 -2.72332 88.8084	-89.7171	89.9969	1.63407 0 0 2.54481	2.38542e-015	1.43306e-010	8.73161 0.675903 2.06801 -91.1883	-86.1973	-89.9998	2.66689 0 0 6.13104	-6.67011e-009	3.12661e-010	4.96735 -0.62265 3.39586 -101.949	-40.7242	-90.0694	2.15386 1.52588e-005 0 10.0172	4.77083e-015	8.53774e-007	5.0226 -0.0266342 0 1.75372	8.88591e-006	4.0562e-013	6.69364 2.86102e-005 0 -17.9975	-1.48952	2.97127
-23.3765	95.115	-29.2321	-61.0003	-81.7211	-59.4884	8.64259 1.95398 -2.38835 175.165	13.7476	93.9353	43.7702 0 0 -21.146	-1.44787	-4.33842	40.6238 0 0 67.098	1.30085	0.604774	-8.2249 1.95398 -2.59336 -175.835	8.07166	90.2459	43.5653 0 0 -10.3771	1.8567	2.17753	40.6238 0 0 56.2863	-0.818502	-0.664403	0.165834 0.87714 6.61349 1.54289	-0.887388	-95.543	7.38963 1.71661e-005 0 14.1935	4.3381e-006	4.06713e-013	11.9445 1.14441e-005 0 2.5225	-3.71648e-012	-1.39149e-015	14.7254 4.19617e-005 0 -20.0126	9.59253e-008	8.14222e-013	10.9679 0 0 2.11592e-029	6.09871e-013	-1.98785e-015	2.46616 -1.6653 3.69651 100.944	-18.6919	-85.9273	13.0012 0 0 26.48	-74.6959	-19.5062	28.7848 1.52588e-005 0 -9.05959	4.39015	-24.2753	26.5688 1.52588e-005 0 4.51448	-0.374139	-2.65376	8.03675 -0.886582 0.727868 -89.4043	88.9709	89.0941	2.78833 0 0 -0.0604881	-1.66752e-009	1.56327e-010	7.97966 -0.886765 -1.00486 -89.3948	88.9811	89.0846	2.86368 0 0 -1.15742	3.18055e-015	-5.2107e-011	8.03707 -0.887528 -2.60696 -88.8572	89.3579	88.547	1.84628 0 0 -1.14578	-3.18055e-015	-0	7.92262 -0.885498 2.31175 -89.423	88.9487	89.1127	2.63761 0 0 0.409286	3.18055e-015	1.04227e-010	3.4769 0.0597992 2.88789 104.364	40.5023	-88.8246	2.77686 9.72748e-005 -1.52588e-005 -7.66903	0.186177	-1.35044	2.38034 -1.29275 -3.75231 -79.1782	-21.5713	93.2198	16.3182 6.10352e-005 0 -4.04492	77.0816	-50.6559	27.0901 0 0 12.0579	-5.39785	-23.8452	24.5451 1.52588e-005 0 -4.78542	-1.85385	0.777036	9.21802 0.665817 0.545532 -91.1873	-87.8289	-89.9988	2.66255 0 0 3.40888	7.95139e-016	-2.08444e-010	9.24775 0.665192 -1.1267 -91.1871	-89.4015	-89.9985	2.47041 0 -1.52588e-005 2.85637	6.67011e-009	2.60557e-010	9.35384 0.66301 -2.72332 88.8084	-89.7171	89.9969	1.63407 0 0 2.54481	3.97569e-016	1.43303e-010	8.73161 0.675903 2.06801 -91.1883	-86.1973	-89.9998	2.66689 0 0 6.13104	-6.67011e-009	3.12661e-010	4.96735 -0.62265 3.39586 -101.949	-40.7242	-90.0694	2.15386 1.52588e-005 0 10.0172	1.59028e-015	8.53774e-007	5.0226 -0.0266342 0 1.75372	8.88591e-006	4.05421e-013	6.69364 2.86102e-005 0 -17.3705	-1.72757	2.54399
